<svg width="20" height="20" viewBox="0 0 20 20" fill="none" xmlns="http://www.w3.org/2000/svg">
<path fill-rule="evenodd" clip-rule="evenodd" d="M18.2941 13.0839C18.0104 12.9036 17.6542 13.0235 17.4984 13.3517C17.3426 13.6798 17.4462 14.092 17.7298 14.2722C18.4278 14.7159 18.8281 15.2077 18.8281 15.6216C18.8281 16.1278 18.2082 16.9124 16.4682 17.5963C14.7493 18.2721 12.4521 18.6442 10 18.6442C7.54785 18.6442 5.2507 18.2721 3.53176 17.5963C1.7918 16.9124 1.17188 16.1278 1.17188 15.6216C1.17188 15.2077 1.57219 14.7159 2.27016 14.2722C2.55379 14.092 2.65738 13.6798 2.50156 13.3516C2.34574 13.0235 1.98961 12.9036 1.7059 13.0839C0.927695 13.5785 0 14.4203 0 15.6216C0 16.5424 0.547344 17.8552 3.15477 18.8801C4.99195 19.6023 7.42297 20 10 20C12.577 20 15.008 19.6023 16.8452 18.8801C19.4527 17.8552 20 16.5424 20 15.6216C20 14.4203 19.0723 13.5785 18.2941 13.0839Z" fill="white"/>
<path fill-rule="evenodd" clip-rule="evenodd" d="M6.15434 17.515C7.32279 17.8277 8.86612 18 10.5 18C12.1339 18 13.6772 17.8278 14.8457 17.515C16.2752 17.1324 17 16.5786 17 15.869C17 15.1593 16.2752 14.6056 14.8457 14.223C14.5283 14.138 14.1832 14.0636 13.8163 14C13.617 14.3262 13.4082 14.6619 13.1899 15.0074C13.596 15.0651 13.9774 15.1359 14.3236 15.2195C15.3757 15.4733 15.76 15.7591 15.839 15.869C15.76 15.9789 15.3757 16.2647 14.3237 16.5186C13.3279 16.7588 12.0468 16.8959 10.6975 16.9081C10.6322 16.9127 10.5663 16.9153 10.5 16.9153C10.4337 16.9153 10.3678 16.9127 10.3025 16.9081C8.95315 16.8959 7.67203 16.7589 6.67629 16.5186C5.62425 16.2647 5.23995 15.9789 5.16094 15.869C5.23995 15.7591 5.62429 15.4733 6.67632 15.2195C7.0226 15.1359 7.40391 15.0651 7.81009 15.0074C7.59179 14.662 7.383 14.3262 7.18373 14C6.81681 14.0636 6.47164 14.138 6.15434 14.223C4.72483 14.6056 4 15.1594 4 15.869C4 16.5786 4.72483 17.1324 6.15434 17.515Z" fill="white"/>
<path fill-rule="evenodd" clip-rule="evenodd" d="M11.7799 15.2545C11.5051 15.7213 11.0267 16 10.5 16C9.97335 16 9.4949 15.7213 9.22014 15.2545C7.29494 11.9836 5 7.67286 5 5.71129C5 2.56207 7.46727 0 10.5 0C13.5327 0 16 2.56207 16 5.71129C16 7.67286 13.7051 11.9836 11.7799 15.2545ZM10.5 3.0236C9.28104 3.0236 8.28931 4.05339 8.28931 5.31915C8.28931 6.58499 9.28104 7.61474 10.5 7.61474C11.719 7.61474 12.7107 6.58495 12.7107 5.31915C12.7107 4.05339 11.719 3.0236 10.5 3.0236Z" fill="white"/>
</svg>
